<?xml version="1.0" encoding="utf-8"?>
<!-- Generator: Adobe Illustrator 16.0.0, SVG Export Plug-In . SVG Version: 6.00 Build 0)  -->
<!DOCTYPE svg PUBLIC "-//W3C//DTD SVG 1.0//EN" "http://www.w3.org/TR/2001/REC-SVG-20010904/DTD/svg10.dtd">
<svg version="1.0" id="Layer_1" xmlns="http://www.w3.org/2000/svg" xmlns:xlink="http://www.w3.org/1999/xlink" x="0px" y="0px"
	 width="195.02px" height="1051.834px" viewBox="0 0 195.02 1051.834" enable-background="new 0 0 195.02 1051.834"
	 xml:space="preserve">
<g>
	<path fill-rule="evenodd" clip-rule="evenodd" fill="#150F0B" d="M68.842,269.986c-2.198,6.838,1.655,11.313,5.564,15.801
		c1.64,1.882,3.164,3.869,4.685,5.851c1.51,1.97,4.528,3.87,0.104,6.138c-0.696,0.357-0.719,2.283-0.822,3.503
		c-1.362,16.057-2.682,32.118-4.012,48.177c-0.248,2.988-0.188,6.043-0.821,8.947c-1.018,4.666,0.5,8.157,3.87,11.245
		c1.638,1.5,2.971,3.331,4.846,5.474c1.065-4.442,4.082-4.949,7.626-5.179c5.851-0.379,11.669-1.25,17.507-1.859
		c1.357-0.142,2.795-0.328,4.096-0.04c3.999,0.886,4.366,2.059,1.89,5.242c-0.153,0.197-0.345,0.373-0.458,0.591
		c-2.344,4.505-5.971,6.348-11.002,5.38c-3.406-0.655-5.508,0.724-6.907,3.942c-1.236,2.842-2.798,5.621-4.653,8.1
		c-5.721,7.639-7.181,16.365-7.776,25.623c-1.122,17.449-2.758,34.866-4.319,52.284c-0.28,3.129,0.242,5.762,1.879,8.479
		c4.698,7.8,9.139,15.754,13.693,23.641c0.981,1.698,10.255,5.273,11.995,4.649c0.227-0.082,0.559-0.188,0.621-0.362
		c2.238-6.184,3.663-0.428,5.026,0.516c1.601,1.108,2.577,3.085,4.119,4.317c2.61,2.085,1.985,4.201,1.011,6.858
		c-1.055,2.877-3.183,1.914-4.969,1.936c-7.373,0.095-14.749-0.039-22.121,0.087c-2.228,0.038-3.598-0.575-4.851-2.534
		c-6.388-9.99-12.919-19.888-19.484-29.764c-1.022-1.538-1.482-3.023-1.417-4.865c0.877-24.854,1.721-49.708,2.512-74.564
		c0.125-3.941,2.286-7.09,3.825-10.443c0.97-2.113,0.915-3.495-0.505-5.317c-3.991-5.122-7.738-10.431-11.669-15.6
		c-1.111-1.461-1.628-2.911-1.625-4.777c0.052-30.246,0.056-60.492-0.007-90.737c-0.004-1.968,0.546-3.216,2.201-4.297
		c3.208-2.096,6.278-4.402,9.406-6.62C68.213,269.867,68.528,269.927,68.842,269.986z"/>
	<path fill-rule="evenodd" clip-rule="evenodd" fill="#150F0B" d="M115.687,89.639c-5.881,0-10.9-0.317-15.859,0.098
		c-4.117,0.344-6.969-0.939-8.896-4.452c-1.613-2.941-3.128-2.536-6.006-1.059c-6.23,3.196-8.037,7.694-8.019,14.545
		c0.047,17.727-0.762,35.456-1.245,53.184c-0.038,1.39-0.219,2.857,1.237,3.641c2.604,1.402,2.07,2.989,0.82,5.146
		c-3.499,6.038-6.835,12.173-10.076,18.354c-1,1.906-1.723,2.055-3.566,0.904c-9.208-5.748-9.215-5.685-9.009-16.514
		c0.511-26.973,1.029-53.944,1.423-80.918c0.04-2.749,0.861-4.603,2.961-6.383c5.332-4.521,10.371-9.386,15.684-13.931
		c1.908-1.633,2.5-3.333,2.413-5.79c-0.652-18.472-1.093-36.951-1.794-55.421c-0.114-3.018,0.729-3.84,3.632-3.629
		c3.479,0.253,7.003,0.252,10.483-0.001c2.732-0.199,3.242,0.797,3.238,3.342c-0.038,21.857,0.069,43.714,0.139,65.571
		c0.017,5.306,6.542,12.524,11.772,12.804c2.049,0.109,3.463,0.704,4.63,2.459C111.354,84.156,113.336,86.538,115.687,89.639z"/>
	<path fill-rule="evenodd" clip-rule="evenodd" fill="#150F0B" d="M147.415,129.351c-0.803,14.093-1.638,28.185-2.377,42.281
		c-0.091,1.737-0.62,3.022-1.816,4.277c-6.206,6.511-12.354,13.079-18.468,19.676c-1.166,1.258-2.322,1.985-4.158,1.962
		c-8.12-0.102-16.244-0.108-24.365-0.002c-2.193,0.029-2.871-0.509-3.088-2.875c-0.637-6.908,0.845-13.018,5.215-18.478
		c0.953-1.19,1.734-1.881,3.312-1.804c2.617,0.127,5.294-0.284,7.86,0.096c6.593,0.977,11.856-1.385,16.625-5.67
		c1.229-1.104,1.837-2.063,1.8-3.756c-0.521-23.484-0.995-46.969-1.392-70.456c-0.041-2.433-0.848-4.196-2.546-5.908
		c-4.048-4.077-7.953-8.299-11.81-12.558c-1.275-1.407-2.59-2.041-4.525-2.015c-4.645,0.062-8.008-3.408-8.053-8.063
		c-0.027-2.874,0.139-5.757-0.05-8.619c-0.157-2.386,0.792-3.176,3.013-2.845c0.244,0.036,0.498,0.003,0.748,0.004
		c5.991,0.04,12.715-1.603,17.768,0.594c5.051,2.196,8.461,8.206,12.537,12.594c4.848,5.217,9.623,10.501,14.466,15.722
		c1.054,1.137,1.728,2.2,1.623,3.933C148.888,101.408,148.169,115.381,147.415,129.351z"/>
	<path fill-rule="evenodd" clip-rule="evenodd" fill="#150F0B" d="M141.072,331.683c0.673,13.97,1.303,27.943,2.064,41.909
		c0.117,2.153-0.338,3.712-1.876,5.311c-9.268,9.629-18.418,19.37-27.607,29.073c-0.258,0.272-0.472,0.624-0.784,0.798
		c-5.956,3.329-12.384,0.984-18.576,1.355c-2.642,0.158-3.5-3.217-5.208-4.942c-1.202-1.214,0.223-2.024,0.801-2.83
		c3.273-4.563,6.71-9.012,9.88-13.646c1.363-1.993,2.902-2.975,5.264-2.537c3.368,0.625,5.491-0.92,7.41-3.593
		c3.637-5.067,7.502-9.978,11.432-14.824c1.372-1.693,1.783-3.349,1.642-5.474c-1.342-20.184-2.607-40.373-3.845-60.563
		c-0.089-1.44-0.498-2.594-1.366-3.749c-3.073-4.09-6.167-8.176-9-12.431c-1.359-2.042-2.927-2.955-5.261-2.526
		c-3.888,0.714-6.122-1.042-7.955-4.404c-2.294-4.21-5.829-7.791-4.922-13.251c0.273-1.644,0.484-2.424,2.34-2.393
		c5.744,0.097,11.491,0.075,17.236,0.005c1.376-0.016,2.313,0.491,3.271,1.4c7.064,6.708,14.135,13.408,21.297,20.01
		c1.347,1.241,1.7,2.574,1.777,4.262c0.657,14.347,1.367,28.69,2.062,43.036C141.123,331.68,141.098,331.681,141.072,331.683z"/>
	<path fill-rule="evenodd" clip-rule="evenodd" fill="#150F0B" d="M73.085,229.373c0-14.981,0.038-29.963-0.044-44.944
		c-0.012-2.081,0.404-3.881,1.382-5.688c4.685-8.659,9.373-17.318,13.892-26.063c1.049-2.03,2.174-2.931,4.544-2.869
		c6.491,0.168,12.989,0.129,19.481,0.014c1.902-0.034,2.937,0.553,3.689,2.314c1.419,3.318,3.103,6.523,4.617,9.802
		c1.071,2.319-0.815,6.279-3.28,6.062c-3.618-0.318-7.906,2.241-10.815-2.456c-1.087-1.755-9.221,0.493-10.188,2.546
		c-2.389,5.071-4.676,10.19-7.105,15.242c-0.684,1.421-0.808,2.84-0.807,4.348c0.009,26.852,0.018,53.704-0.02,80.556
		c-0.002,1.805,0.345,3.422,1.184,5.009c1.222,2.312,2.615,4.589,3.435,7.048c2.096,6.288,5.479,10.398,12.881,8.902
		c1.218-0.246,2.089,0.36,2.816,1.379c1.159,1.624,2.645,3.04,3.634,4.751c0.938,1.62,3.896,2.579,2.358,5.099
		c-1.729,2.835-3.569,5.935-7.859,4.423c-0.115-0.041-0.248-0.051-0.371-0.043c-10.019,0.646-15.808-4.653-21.545-12.525
		c-6.908-9.478-11.542-18.737-10.223-30.705c0.583-5.287-0.235-10.721-0.311-16.09c-0.075-5.369-0.017-10.739-0.017-16.109
		C73.971,229.374,73.528,229.373,73.085,229.373z"/>
	<path fill-rule="evenodd" clip-rule="evenodd" fill="#150F0B" d="M142.361,590.655c-4.546-4.796-8.71-9.277-12.987-13.647
		c-1.29-1.317-1.463-2.475-0.414-3.922c1.793-2.475,1.898-5.25,1.71-8.197c-0.94-14.713-1.8-29.433-2.604-44.154
		c-0.131-2.396-0.958-4.155-2.766-5.799c-5.453-4.96-10.801-10.043-16.041-15.227c-1.752-1.733-3.507-2.683-5.944-2.104
		c-4.189,0.996-6.957-0.628-9.254-4.232c-2.407-3.776-5.438-7.154-8.184-10.715c-0.809-1.049-2.169-2.115-0.759-3.521
		c1.734-1.727,1.697-5.342,5.214-5.151c5.862,0.316,11.716,0.804,17.579,1.093c1.57,0.078,2.499,1.028,3.538,1.872
		c10.768,8.739,21.507,17.514,32.287,26.237c1.234,0.999,1.906,2.029,2.045,3.708c1.368,16.43,2.326,32.919,4.469,49.251
		c1.363,10.389-0.063,19.713-5.245,28.654C144.013,586.513,143.358,588.42,142.361,590.655z"/>
	<path fill-rule="evenodd" clip-rule="evenodd" fill="#150F0B" d="M131.44,399.014c4.041,4.31,4.962,9.002,4.904,14.403
		c-0.24,22.488-0.102,44.979-0.101,67.47c0,1.217,0,2.435,0,4.507c-5.261-4.063-9.948-7.654-14.597-11.295
		c-1.466-1.147-0.711-2.808-0.636-4.208c0.866-16.09,1.786-32.178,2.733-48.264c0.199-3.389,0.46-6.729-1.94-9.596
		c-0.76-0.908-0.95-1.819,0.11-2.899C125.146,405.846,128.245,402.429,131.44,399.014z"/>
	<path fill-rule="evenodd" clip-rule="evenodd" fill="#150F0B" d="M131.472,198.425c0,23.302,0,46.604,0,70.754
		c-5.057-4.384-9.701-8.383-14.306-12.428c-0.829-0.729-0.625-1.853-0.662-2.836c-0.591-15.72-1.118-31.443-1.813-47.158
		c-0.109-2.475,0.536-3.421,3.003-3.054C123.147,204.515,127.756,203.181,131.472,198.425z"/>
	<path fill-rule="evenodd" clip-rule="evenodd" fill="#150F0B" d="M137.544,26.738c0,8.248,0.003,16.496-0.002,24.744
		c-0.001,0.999,0.078,2.018-0.08,2.994c-0.814,5.003-2.151,5.57-6.106,2.667c-2.919-2.143-5.831-4.295-8.763-6.422
		c-0.926-0.671-2.073-1.293-0.914-2.588c2.248-2.509,1.359-5.407,1.112-8.208c-1.174-13.312-2.317-26.627-3.648-39.924
		c-0.242-2.422,0.66-2.611,2.599-2.56c4.246,0.112,8.504,0.173,12.744-0.019c2.426-0.109,3.164,0.585,3.119,3.074
		C137.449,9.241,137.544,17.99,137.544,26.738z"/>
</g>
<g>
	<defs>
		<polyline id="SVGID_1_" points="44.208,1051.834 44.208,422.834 222.208,422.834 222.208,1051.834 		"/>
	</defs>
	<clipPath id="SVGID_2_">
		<use xlink:href="#SVGID_1_"  overflow="visible"/>
	</clipPath>
	<g clip-path="url(#SVGID_2_)">
		<path fill-rule="evenodd" clip-rule="evenodd" fill="#150F0B" d="M132.466,818.447c2.199-6.838-1.654-11.313-5.563-15.801
			c-1.64-1.882-3.164-3.868-4.685-5.851c-1.51-1.97-4.528-3.87-0.104-6.138c0.696-0.357,0.719-2.283,0.822-3.503
			c1.361-16.057,2.682-32.117,4.012-48.178c0.248-2.987,0.188-6.043,0.821-8.946c1.019-4.666-0.499-8.157-3.87-11.246
			c-1.638-1.499-2.971-3.33-4.846-5.474c-1.064,4.442-4.082,4.949-7.626,5.179c-5.851,0.379-11.669,1.25-17.507,1.859
			c-1.357,0.141-2.795,0.327-4.095,0.039c-4-0.885-4.367-2.059-1.89-5.241c0.153-0.197,0.345-0.373,0.458-0.591
			c2.343-4.506,5.97-6.348,11.001-5.38c3.406,0.655,5.508-0.724,6.907-3.942c1.235-2.842,2.798-5.621,4.653-8.1
			c5.721-7.639,7.181-16.365,7.775-25.623c1.123-17.449,2.758-34.866,4.319-52.284c0.28-3.129-0.242-5.762-1.88-8.479
			c-4.697-7.8-9.139-15.754-13.692-23.641c-0.981-1.698-10.255-5.273-11.995-4.649c-0.227,0.082-0.559,0.188-0.621,0.362
			c-2.238,6.184-3.663,0.428-5.026-0.516c-1.601-1.108-2.577-3.085-4.119-4.317c-2.61-2.085-1.985-4.201-1.011-6.858
			c1.055-2.877,3.183-1.914,4.969-1.936c7.373-0.095,14.748,0.039,22.121-0.087c2.227-0.038,3.598,0.575,4.851,2.534
			c6.388,9.99,12.919,19.888,19.483,29.764c1.023,1.538,1.482,3.023,1.417,4.865c-0.877,24.854-1.721,49.708-2.512,74.564
			c-0.126,3.941-2.286,7.09-3.825,10.443c-0.971,2.112-0.915,3.494,0.506,5.316c3.99,5.121,7.738,10.432,11.669,15.6
			c1.111,1.461,1.628,2.911,1.624,4.777c-0.052,30.245-0.056,60.491,0.008,90.737c0.004,1.969-0.546,3.216-2.201,4.297
			c-3.208,2.096-6.278,4.401-9.406,6.62C133.095,818.566,132.78,818.507,132.466,818.447z"/>
		<path fill-rule="evenodd" clip-rule="evenodd" fill="#150F0B" d="M85.623,998.795c5.88,0,10.9,0.316,15.859-0.098
			c4.117-0.345,6.969,0.938,8.896,4.451c1.612,2.94,3.128,2.536,6.007,1.059c6.229-3.196,8.037-7.694,8.019-14.545
			c-0.048-17.727,0.763-35.456,1.245-53.184c0.037-1.391,0.219-2.857-1.237-3.642c-2.604-1.402-2.069-2.989-0.82-5.146
			c3.499-6.038,6.835-12.173,10.076-18.354c1-1.906,1.723-2.055,3.565-0.904c9.209,5.748,9.215,5.685,9.01,16.514
			c-0.512,26.973-1.029,53.944-1.424,80.918c-0.039,2.749-0.86,4.603-2.961,6.383c-5.332,4.521-10.371,9.387-15.684,13.932
			c-1.908,1.633-2.5,3.332-2.412,5.789c0.651,18.472,1.092,36.951,1.794,55.421c0.114,3.019-0.729,3.84-3.632,3.629
			c-3.479-0.253-7.004-0.252-10.483,0.002c-2.731,0.199-3.242-0.797-3.237-3.343c0.037-21.857-0.07-43.714-0.14-65.571
			c-0.017-5.306-6.542-12.524-11.773-12.804c-2.048-0.109-3.462-0.703-4.629-2.459C89.954,1004.278,87.973,1001.896,85.623,998.795z
			"/>
		<path fill-rule="evenodd" clip-rule="evenodd" fill="#150F0B" d="M53.894,959.082c0.803-14.093,1.638-28.184,2.377-42.28
			c0.091-1.737,0.62-3.021,1.816-4.277c6.206-6.511,12.354-13.079,18.468-19.676c1.166-1.258,2.322-1.985,4.158-1.962
			c8.121,0.102,16.244,0.107,24.364,0.001c2.193-0.028,2.871,0.51,3.089,2.876c0.637,6.908-0.845,13.018-5.216,18.478
			c-0.952,1.19-1.733,1.881-3.312,1.804c-2.617-0.127-5.293,0.285-7.861-0.096c-6.592-0.977-11.856,1.385-16.625,5.67
			c-1.229,1.104-1.836,2.064-1.799,3.756c0.521,23.484,0.995,46.97,1.392,70.456c0.041,2.433,0.847,4.196,2.546,5.907
			c4.047,4.077,7.953,8.3,11.81,12.559c1.274,1.406,2.589,2.041,4.525,2.015c4.644-0.062,8.008,3.408,8.053,8.063
			c0.027,2.874-0.139,5.758,0.05,8.619c0.157,2.386-0.792,3.177-3.012,2.846c-0.245-0.036-0.499-0.004-0.749-0.005
			c-5.991-0.04-12.714,1.603-17.768-0.594c-5.051-2.196-8.46-8.207-12.537-12.594c-4.848-5.218-9.623-10.502-14.466-15.723
			c-1.054-1.137-1.728-2.2-1.623-3.933C52.421,987.025,53.14,973.053,53.894,959.082z"/>
		<path fill-rule="evenodd" clip-rule="evenodd" fill="#150F0B" d="M60.236,756.751c-0.673-13.971-1.303-27.943-2.064-41.909
			c-0.117-2.152,0.338-3.712,1.876-5.311c9.267-9.629,18.417-19.369,27.607-29.072c0.257-0.272,0.472-0.624,0.784-0.799
			c5.957-3.329,12.384-0.984,18.576-1.355c2.642-0.158,3.5,3.217,5.208,4.942c1.201,1.214-0.224,2.024-0.802,2.83
			c-3.272,4.563-6.71,9.013-9.88,13.646c-1.363,1.993-2.902,2.975-5.263,2.537c-3.369-0.625-5.492,0.92-7.411,3.593
			c-3.637,5.067-7.502,9.978-11.431,14.824c-1.373,1.693-1.784,3.349-1.642,5.474c1.342,20.184,2.607,40.373,3.845,60.563
			c0.088,1.44,0.498,2.594,1.366,3.749c3.073,4.09,6.167,8.175,9,12.431c1.359,2.043,2.927,2.955,5.261,2.526
			c3.888-0.714,6.122,1.041,7.955,4.404c2.294,4.21,5.828,7.791,4.922,13.251c-0.273,1.644-0.484,2.424-2.341,2.393
			c-5.744-0.097-11.491-0.075-17.236-0.006c-1.376,0.017-2.313-0.49-3.271-1.4c-7.064-6.707-14.135-13.407-21.297-20.01
			c-1.346-1.241-1.7-2.574-1.777-4.262c-0.657-14.347-1.367-28.69-2.062-43.035C60.186,756.754,60.211,756.752,60.236,756.751z"/>
		<path fill-rule="evenodd" clip-rule="evenodd" fill="#150F0B" d="M128.224,859.061c0,14.981-0.038,29.963,0.044,44.944
			c0.012,2.081-0.404,3.881-1.382,5.688c-4.685,8.659-9.373,17.318-13.893,26.063c-1.049,2.03-2.174,2.931-4.543,2.869
			c-6.491-0.168-12.989-0.13-19.481-0.014c-1.902,0.034-2.937-0.553-3.689-2.313c-1.419-3.319-3.103-6.523-4.617-9.803
			c-1.071-2.318,0.815-6.278,3.28-6.062c3.618,0.318,7.906-2.241,10.815,2.456c1.086,1.755,9.221-0.493,10.188-2.547
			c2.389-5.07,4.676-10.189,7.104-15.241c0.684-1.421,0.808-2.841,0.807-4.348c-0.009-26.852-0.018-53.704,0.02-80.556
			c0.003-1.805-0.345-3.422-1.184-5.009c-1.222-2.312-2.615-4.589-3.435-7.048c-2.097-6.288-5.479-10.398-12.882-8.902
			c-1.217,0.246-2.089-0.36-2.816-1.38c-1.159-1.623-2.645-3.039-3.634-4.75c-0.937-1.62-3.895-2.579-2.358-5.1
			c1.729-2.836,3.569-5.935,7.859-4.423c0.115,0.04,0.248,0.051,0.371,0.043c10.019-0.646,15.808,4.653,21.546,12.525
			c6.907,9.478,11.541,18.736,10.223,30.705c-0.583,5.287,0.235,10.721,0.311,16.091c0.076,5.368,0.018,10.738,0.018,16.108
			C127.338,859.06,127.78,859.061,128.224,859.061z"/>
		<path fill-rule="evenodd" clip-rule="evenodd" fill="#150F0B" d="M58.947,497.778c4.546,4.796,8.71,9.277,12.988,13.647
			c1.29,1.317,1.462,2.475,0.414,3.922c-1.793,2.475-1.898,5.25-1.71,8.197c0.941,14.713,1.799,29.433,2.604,44.154
			c0.131,2.396,0.958,4.155,2.765,5.799c5.453,4.96,10.801,10.043,16.042,15.227c1.752,1.733,3.506,2.683,5.944,2.104
			c4.188-0.996,6.957,0.628,9.254,4.232c2.407,3.776,5.438,7.154,8.185,10.715c0.809,1.049,2.169,2.115,0.759,3.521
			c-1.733,1.727-1.697,5.342-5.214,5.151c-5.862-0.316-11.716-0.804-17.579-1.093c-1.57-0.078-2.499-1.028-3.538-1.872
			c-10.768-8.739-21.507-17.514-32.287-26.237c-1.234-0.999-1.906-2.029-2.045-3.708c-1.368-16.43-2.326-32.919-4.469-49.251
			c-1.363-10.389,0.064-19.713,5.246-28.654C57.296,501.921,57.95,500.014,58.947,497.778z"/>
		<path fill-rule="evenodd" clip-rule="evenodd" fill="#150F0B" d="M69.868,689.42c-4.041-4.31-4.961-9.002-4.904-14.403
			c0.241-22.488,0.101-44.979,0.101-67.47c0-1.217,0-2.435,0-4.507c5.26,4.063,9.949,7.654,14.597,11.295
			c1.466,1.147,0.711,2.808,0.636,4.208c-0.866,16.09-1.787,32.178-2.733,48.264c-0.199,3.389-0.46,6.729,1.94,9.596
			c0.76,0.908,0.951,1.819-0.111,2.899C76.162,682.588,73.064,686.004,69.868,689.42z"/>
		<path fill-rule="evenodd" clip-rule="evenodd" fill="#150F0B" d="M69.837,890.009c0-23.303,0-46.605,0-70.755
			c5.056,4.384,9.701,8.383,14.306,12.428c0.829,0.729,0.625,1.853,0.662,2.836c0.591,15.721,1.119,31.443,1.813,47.159
			c0.109,2.475-0.536,3.421-3.003,3.054C78.162,883.919,73.553,885.253,69.837,890.009z"/>
		<path fill-rule="evenodd" clip-rule="evenodd" fill="#150F0B" d="M63.764,1061.695c0-8.248-0.002-16.496,0.003-24.744
			c0-0.999-0.079-2.018,0.08-2.994c0.814-5.002,2.151-5.57,6.106-2.667c2.919,2.144,5.832,4.295,8.762,6.422
			c0.926,0.672,2.074,1.294,0.914,2.589c-2.247,2.509-1.359,5.406-1.112,8.209c1.174,13.312,2.317,26.627,3.648,39.924
			c0.242,2.422-0.66,2.611-2.599,2.561c-4.246-0.112-8.503-0.174-12.744,0.019c-2.426,0.109-3.164-0.585-3.12-3.074
			C63.859,1079.193,63.764,1070.443,63.764,1061.695z"/>
	</g>
</g>
</svg>
