<?xml version="1.0" encoding="utf-8"?>
<!-- Generator: Adobe Illustrator 16.0.0, SVG Export Plug-In . SVG Version: 6.00 Build 0)  -->
<!DOCTYPE svg PUBLIC "-//W3C//DTD SVG 1.0//EN" "http://www.w3.org/TR/2001/REC-SVG-20010904/DTD/svg10.dtd">
<svg version="1.0" id="Layer_1" xmlns="http://www.w3.org/2000/svg" xmlns:xlink="http://www.w3.org/1999/xlink" x="0px" y="0px"
	 width="574.021px" height="360.468px" viewBox="0 0 574.021 360.468" enable-background="new 0 0 574.021 360.468"
	 xml:space="preserve">
<path fill-rule="evenodd" clip-rule="evenodd" fill="#020101" d="M613,305c-1.464-0.751-3.006-1.679-2.648-3.508
	c0.159-0.816,0.83-2.688,2.648-1.492C613,301.667,613,303.333,613,305z"/>
<path fill-rule="evenodd" clip-rule="evenodd" fill="#8B2405" d="M558.008,329.994c1.076-0.033,2.195-0.237,3.023,0.74
	C559.912,330.94,558.793,331.149,558.008,329.994z"/>
<polygon fill-rule="evenodd" clip-rule="evenodd" fill="#8B2405" points="147.948,487.65 147.949,487.354 148.374,487.498 "/>
<polygon fill-rule="evenodd" clip-rule="evenodd" fill="#8B2405" points="149.025,490.99 148.768,490.761 148.986,491.028 "/>
<path fill-rule="evenodd" clip-rule="evenodd" fill="#8B2405" d="M561.968,330.899c0.293-0.512,0.647-0.6,1.077-0.156
	C562.686,330.795,562.327,330.847,561.968,330.899z"/>
<path fill-rule="evenodd" clip-rule="evenodd" fill="#020101" d="M82.896,472.094c-0.134-0.197-0.268-0.396-0.402-0.593
	c0.209,0.121,0.419,0.243,0.63,0.362C83.126,471.861,82.896,472.094,82.896,472.094z"/>
<polygon fill-rule="evenodd" clip-rule="evenodd" fill="#020101" points="80.509,477.749 80.352,477.418 80.717,477.448 "/>
<polygon fill-rule="evenodd" clip-rule="evenodd" fill="#020101" points="73.715,497.517 73.454,497.597 73.484,497.373 "/>
<path fill-rule="evenodd" clip-rule="evenodd" fill="#020101" d="M300.966,494.962c0.167-0.149,0.334-0.299,0.502-0.448
	c-0.146,0.17-0.293,0.34-0.439,0.511L300.966,494.962z"/>
<rect x="365.354" y="193.334" fill-rule="evenodd" clip-rule="evenodd" fill="#020101" width="208.666" height="148.667"/>
<path fill="#020101" d="M573.924,149.453c-2.302-1.094-3.569-2.462-2.161-5.245c1.52-3,0.181-5.422-2.181-7.413
	c-0.251-0.211-0.564-0.35-0.814-0.563c-8.341-7.082-8.649-9.203-2.608-17.9c0.749-1.079,1.498-2.157,2.521-3.633
	c1.06,3.45,5.981,5.854,0.779,10.1c1.944,0.264,3.234,0.573,4.464-0.346v-46c-5.965,1.446-11.301-0.778-16.891-2.424
	c-7.939-2.337-15.781-7.188-24.516-2.821c-3.399,1.7-4.937,0.827-6.18-2.856c-1.665-4.936-6.102-5.819-9.082-2.292
	c-0.678,0.802-0.684,2.568-2.327,1.872c-1.59-0.674-1.183-2.214-0.935-3.508c0.977-5.105,1.116-10.271,0.771-15.418
	c-0.49-7.291-2.156-14.03-8.994-18.369c-2.947-1.871-2.463-5.839-4.105-8.623c-0.457-0.775-0.139-2.795,2.022-3.329
	c4.08-1.009,2.187-2.716,0.098-4.001c-1.368-0.843-3.545-1.052-2.773-3.36c1.395-4.173-0.702-5.958-4.327-6.666
	c-4.161-0.812-8.874-2.738-11.129,2.951c-0.899,2.268-1.953,3.138-4.287,3.013c-1.142-0.062-2.475,0.491-2.848,1.649
	c-0.489,1.521,0.918,1.908,2.011,2.282c1.172,0.401,2.352,1.009,2.348,2.293c-0.012,4.374,1.815,8.453,1.284,13.046
	c-0.373,3.225-3.55,5.089-3.319,8.227c1.468,0.528,1.751-1.937,3.204-0.538c-3.698,4.578-3.119,10.042-2.891,15.288
	c0.192,4.4-1.316,6.552-5.687,7.692c-6.158,1.606-8.837,5.846-8.48,11.845c0.116,1.948-0.41,3.808-1.991,4.854
	c-1.776,1.176-3.036-0.612-4.347-1.487c-8.305-5.545-16.15-12.008-25.029-16.378c-5.672-2.792-8.983-5.467-8.666-11.812
	c0.009-0.174-0.409-0.369-0.897-0.784c-2.578,5.046-6.26,8.861-11.688,10.821c-2.196,0.793-3.348,2.893-3.811,4.992
	c-0.526,2.388-1.865,4.2-3.057,6.192c-3.925,6.56-6.769,13.695-10.954,20.145c-2.415,3.721-0.022,7.817,0.854,11.504
	c0.574,2.416,8.971,1.071,11.156-1.485c2.202-0.146,0.943,2.712,3.192,3.016c0.053-0.983,0.262-1.925,0.121-2.811
	c-0.501-3.151-0.392-4.494,3.698-3.195c4.685,1.488,9.775,1.795,14.721,2.326c2.718,0.291,4.914,1.082,5.961,3.703
	c2.376,5.951,8.814,10.203,7.373,17.812c-0.163,0.861,1.139,1.936,1.582,2.987c2.884,6.844,5.627,13.759,12.023,18.314
	c0.427,0.304,0.289,1.301,0.617,1.855c4.447,7.525,3.13,15.801,3.137,23.898c0.002,2.421,0.653,5.319-2.993,5.813
	c-3.035,0.411-6.171,2.243-9.062-0.565c-2.716-2.639-6.947-2.46-9.404,0.295c-4.402,4.937-15.986,6.25-21.762,2.432
	c-0.91-0.603-2.088-1.099-2.733-0.329c-3.377,4.025-4.958,0.631-6.697-1.566c-3.406-4.304-9.222-3.87-11.686,1.039
	c-0.827,1.646-1.518,2.15-3.684,2.122c-2.934-0.039-6.023-0.965-9.096,1.77c-2.977,2.649-7.971-0.938-7.799-5.134
	c0.061-1.47,0.257-3.049,0.859-4.362c4.024-8.775,1.755-15.672-6.005-21.045c-0.271-0.188-0.496-0.444-0.757-0.65
	c-2.563-2.031-2.331-3.462,0.922-4.19c1.126-0.252,2.59-0.247,2.637-1.719c0.045-1.441-1.49-1.919-2.516-1.963
	c-3.84-0.161-5.847-2.258-7.465-5.554c-1.343-2.735-10.486-3.369-11.843-0.748c-1.989,3.844-4.863,6.064-8.709,7.611
	c-1.975,0.794-1.848,3.009,0.073,3.012c4.901,0.008,6.412,3.45,8.371,6.638c-4.601,2.624-9.562,4-14.443,5.531
	c-6.118,1.919-11.402,7.354-18.738,4.461c-0.918-0.361-2.259,0.349-3.403,0.563c-1.013,0.189-2.13,0.398-1.561,1.817
	c0.412,1.026,0.871,2.707,2.21,2.247c2.581-0.887,4.81-2.095,4.833,2.304c0.004,0.765,1.3,0.618,2.137,0.684
	c1.971,0.154,3.892,0.597,5.279,2.492c-0.66,0.414-1.222,0.74-1.756,1.105c-4.46,3.051-8.29,8.273-14.809,4.026
	c-0.801-0.521-2.046,0.152-2.356,1.258c-0.334,1.189,0.123,2.214,1.045,3.133c2.418,2.409,5.735,3.116,9.541,4.878
	c-7.68,3.223-10.659,10.894-17.214,14.298c-4.044,2.1-7.581,4.273-9.191,8.726c-0.518,5.174-3.819,8.771-6.683,12.8
	c-4.747,6.682-9.873,13.458-12.74,20.993c-2.188,5.753-1.529,12.753-1.348,19.175c0.096,3.375,3.475,5.176,6.499,6.201
	c5.941,2.015,11.705,4.463,18.084,5.289c6.872,0.89,11.503,4.762,12.46,12.258c1.001,7.843,4.208,13.585,13.136,15.195
	c6.267,1.13,8.44,6.549,6.367,12.663c-0.107,0.314-0.115,0.728-0.327,0.934c-3.323,3.229,3.405,10.236-4.874,11.947
	c-4.944,1.021-7.623,6.527-11.906,8.656c-3.927,1.951-9.05,2.067-13.378-0.436c-3.964-2.291-8.102-2.758-12.419-1.615
	c-2.734,0.724-5.118,1.902-6.368,4.887c-2.053,4.896-5.561,4.815-10.236,1.728c-2.439-1.612-3.994-4.766-7.709-4.897
	c-1.843-0.065-0.619-2.695,0.028-2.915c4.19-1.416,0.118-3.667,0.698-5.37c-4.442-0.995-1.363-2.767-0.446-4.315l-0.063-0.063
	c-3.631,0.117-3.229-3.356-3.553-5.028c-1.805-9.315-6.307-17.967-7.157-27.675c-1.189,7.311-2.495,14.604-3.49,21.942
	c-0.266,1.965-0.392,3.289-2.581,4.13c-1.52,0.583-3.367,1.954-0.818,4.069c1.784,1.48,0.375,1.177-0.707,0.883
	c-0.657-0.178-1.292-0.281-1.102,0.887c0.156,0.957,2.216,1.329,1.425,1.472c-3.187,0.573-5.637,4.173-9.12,2.604
	c-1.356-0.611-0.26-2.045,0.729-2.749c1.311-0.935,3.086-1.228,4.051-2.765c-1.528-1.821-3.121-0.172-4.581-0.362
	c-0.371-3.268,2.692-3.667,3.949-4.773c-6.255-13.084-10.974-26.302-12.708-40.585c-0.799,5.011-1.055,10.193-2.569,14.978
	c-1.195,3.777-1.163,8.311-4.823,11.124c-0.46,0.354-0.575,1.157-0.849,1.752c2.25,0.888-0.902,4.158,2.082,4.722
	c-0.495,1.328-1.165,3.847-1.458,3.804c-4.272-0.628-1.58,4.369-4.13,4.934c1.242,1.839,1.273,1.399-1.197,2.168
	c-4.615,1.435-3.953-0.782-4.743-3.527c-1.67-5.804-4.379-11.277-6.253-17.224c-0.992,4.048-2.12,8.07-2.891,12.159
	c-0.228,1.207-0.077,2.448-1.454,2.751c-2.214,0.488-1.693,1.575-1.171,3.139c0.817,2.449,0.592,4.596-2.742,4.95
	c-1.031,0.11-1.895,0.212-0.687,1.743c1.556,1.972,0.001,4.645,0.741,6.926c-3.847,0.838-1.403,3.23-1.316,5.456
	c-4.259-0.631-9.063-1.517-12.477,1.378c-2.934,2.488-6.183,3.718-9.083,2.581c-6.978-2.736-15.417-0.128-21.434-6.035
	c-0.445-0.437-1.247-0.883-1.792-0.79c-10.956,1.869-20.986-5.404-31.968-3.213c-1.344,0.268-2.99,0.119-3.493-1.261
	c-0.496-1.36,1.273-1.722,2.072-2.44c1.989-1.788,4.114-3.426,5.759-5.995c-2.921,0.881-5.801,1.95-8.775,2.583
	c-2.335,0.498-3.688-0.193-1.655-2.648c-0.004,0.002-0.009,0.003-0.013,0.005l-0.219-0.268l0.258,0.229
	c-0.01,0.012-0.017,0.021-0.026,0.033c2.486-0.926,6.239-1.37,1.802-4.939c-0.146-0.118-1.888-1.842-0.554-2.235
	c5.048-1.491,0.97-3.694,0.292-5.034c-2.065-4.086-3.525-8.465-3.386-12.835c0.076-2.395-1.854-2.348-2.346-4.006
	c-2.301-7.764-3.918-15.629-5.312-23.655c-1.021,8.188-2.73,16.226-4.484,24.259c-0.308,1.409,0.039,2.581-1.861,3.488
	c-3.99,1.905-3.869,2.622-0.004,5.375c-0.927,0.319-1.792,0.617-2.986,1.028c1.143,0.814,2.004,1.428,3.135,2.233
	c-1.521,0.179-2.638,0.311-3.952,0.466c0.727,1.238,4.584,1.051,0.88,3.78c-2.994,2.207-5.042,6.365-0.069,9.67
	c0.835,0.555,0.375,1.394-0.398,2.004c-2.532,1.999-2.516,2.02-1.481,4.953c-1.615,0.169-3.164,0.332-4.681,0.491
	c-0.079,1.605,1.059,1.909,1.85,2.381c2.158,1.29-1.131,3.576,0.952,4.818c-1.067,1.368-2.618,0.741-3.648,0.396
	c-3.54-1.186-6.878-2.275-10.013,0.928c-0.483,0.493-1.647,0.242-2.374,0.591c-2.464,1.181-2.136-1.452-3.015-2.269
	c-1.879-1.743,0.657-1.495,1.219-2.118c0.547-0.605,1.24-1.081,1.879-1.601c1.085-0.884,3.324-1.303,2.494-3.146
	c-1.037-2.304-2.977-0.354-4.291-0.009c-1.803,0.475-3.525,0.735-5.339,0.723c-1.108-4.752,4.367-4.125,5.645-6.832
	c-1.691-2.104-3.514-0.274-5.486-0.631c1.691-1.974,1.771-4.974,4.873-5.58c0.209-0.041,0.274-0.814,0.407-1.247
	c-3.015-0.756-0.668-6.12-5.076-5.349c0.395-2.116,2.321-2.386,2.962-3.627c0.617-1.196-0.635-1.127-1.398-1.227
	c-0.454,0.494-0.917,0.927-1.557,0.247c0.367-0.254,0.735-0.508,1.101-0.764c-0.807-0.643,3.337-1.925-0.081-1.866
	c-2.37,0.04-2.099-1.939-2.168-2.471c-0.463-3.557-3.548-6.716-3.724-9.286c-0.561-8.215-5.543-15.569-3.946-24.085
	c-2.116,1.608-1.829,3.883-2.195,5.874c-1.148,6.237-0.565,12.891-4.679,18.443c-0.223,0.3-0.201,2.905,0.198,3.429
	c1.605,2.108,0.461,2.33-1.223,3.04c-4.185,1.765-4.252,3.132-0.565,6.335c-0.928,1.013-2.225,0.276-3.271,0.695l-0.23,0.232
	c1.086,0.657,2.172,1.314,3.84,2.323c-1.669,0.271-2.825,0.459-4.031,0.655c-0.035,1.917,2.657,1.236,2.7,2.967
	c-5.294,0.965-5.29,1.512-4.016,7.616c0.701,3.358-3.112-0.085-3.905,1.93c0.528,1.829,2.202,1.452,3.564,1.63
	c1.414,0.185,2.905,0.555,2.574,2.283c-0.43,2.242-1.97,0.856-3.133,0.622c-0.787-0.158-1.596-0.208-3.083-0.392
	c0.922,1.489,1.562,2.482,2.161,3.499c0.565,0.959,1.884,1.456,1.758,3.022c-1.871,1.7-4.06-1.879-6.082,0.675
	c2.905,1.737,3.61,5.121,4.743,8.35c-3.836,3.31-8.245-3.549-12.51,0.005c2.125,2.824,5.563,3.723,8.379,6.578
	c-2.485,0.961-4.569,0.886-6.508,0.216c0.397,3.342-2.046,6.899-5.933,5.293c-2.134-0.882-4.328-1.437-6.446-2.225
	c-1.822,1.706-3.518,3.489-4.916,5.639c-2.226,3.422-4.329,7.257-7.432,9.994c-0.048,0.043-0.099,0.08-0.148,0.122
	c0.712,0.282,1.298,0.717,1.75,1.255c1.104,0.059,2.205,0.159,3.305,0.299c0.286-0.44,0.534-0.896,0.698-1.376
	c0.246,0.011,0.493,0.021,0.774,0.021c186-0.106,372-0.106,558,0c3.424,0.002,4.103-0.67,4.097-4.095
	C573.892,287.453,573.924,218.453,573.924,149.453z M415.506,95.283c4.337-1.442,7.333,1.031,10.381,0.176
	c-0.017-0.024-0.037-0.041-0.054-0.066c0.007-0.006,0.014-0.01,0.02-0.016c-1.645-2.077-4.37-1.396-6.505-2.374
	c6.38-5.91,7.762-5.735,10.978,1.351c-1.202,1.544-3.191-0.14-4.473,1.023c0.021,0.026,0.044,0.048,0.064,0.075
	c-0.01,0.003-0.02,0.004-0.03,0.007c1.66,2.383,5.701-0.863,7.013,3.188C427.179,98.417,421.802,97.818,415.506,95.283z
	 M211.023,327.414c-0.02,0.025-0.039,0.05-0.059,0.074c-0.036,0.012-0.075,0.015-0.112,0.023c-0.611,0.6-1.218,1.214-2.257,0.851
	c0.466-1.176,1.487-0.669,2.257-0.851c0.024-0.024,0.048-0.048,0.073-0.071C210.957,327.43,210.99,327.424,211.023,327.414
	c1.265-1.573,2.386-3.135-1.702-4.273c3.97-0.619,5.34,0.832,6.198,3.248C214.243,327.987,212.464,327.005,211.023,327.414z
	 M334.306,181.928c8.063-5.912,8.063-5.912,13.077-0.64C343.153,182.271,339.184,182.792,334.306,181.928z M550.892,228.568
	c2.334,9.421,2.052,19.081,2.811,27.118c-0.427,13.24-6.325,19.956-16.219,19.945c-6.13-0.007-11.19-3.491-12.19-9.513
	c-2.047-12.322-2.712-24.816-2.635-37.29c0.039-6.348,6.237-11.891,12.39-12.274C543.186,216.047,548.87,220.412,550.892,228.568z
	 M553.109,294.678c0.014,3.98-2.131,5.986-5.926,6.483c-0.164,0.021-0.331,0.026-0.496,0.033c-3.641,0.156-7.887,1.563-10.773,0.163
	c-3.958-1.918,0.103-6.456-0.866-9.91c-0.952-3.396,0.378-7.181-1.561-10.643c-0.936-1.672-0.666-3.679,2.218-3.563
	c0.821,0.033,1.65-0.115,2.476-0.18c11.344-0.896,15.397-1.436,14.928,12.647C553.108,291.366,553.104,293.021,553.109,294.678z
	 M513.185,281.003c-0.438-1.408-0.195-2.526,1.804-2.606c4.479-0.179,8.945-0.617,13.423-0.806c1.314-0.056,3.471-0.718,3.333,1.685
	c-0.125,2.193,1.409,5.155-0.898,6.408c-1.515,0.823-4.399,2.035-6.015-0.682c-0.539-0.906-0.875-1.9-2.087-1.457
	c-0.339,0.124-0.453,1.077-0.524,1.667c-0.155,1.273,0.05,2.433,1.718,2.302c4.941-0.388,2.976,2.743,2.62,5.064
	c0.556-0.119,0.769,0.164,0.789,0.673c5.124,0.179,6.247,1.779,5.448,6.979c-0.316,2.06-1.675,1.783-2.863,1.854
	c-4.311,0.257-8.64,0.267-12.941,0.621c-2.155,0.178-2.726-0.809-2.562-2.553C515.033,293.697,515.143,287.297,513.185,281.003z
	 M476.014,146.253c0.183-2.182,5.556-3.785,8.133-1.771c4.599,3.596,9.529,0.75,14.228,1.509c1.754,0.283,2.563-1.882,3.46-3.248
	c3.758-5.718,4.396-5.833,9.288-1.653c0.597,0.509,1.365,0.816,2.622,1.548c-0.238-3.112-3.423-5.718-0.827-8.099
	c1.907-1.749,4.419-2.875,6.746-4.12c2.217-1.187,4.229-2.573,6.05-4.327c5.622-5.418,12.639-3.806,14.955,3.496
	c1.604,5.056,2.985,10.188,4.317,15.324c2.476,9.543-3.196,15.888-13.018,15.279c-2.923-0.181-5.394-1.099-7.999-1.995
	c-0.359,0.052-0.718,0.104-1.077,0.156c-0.328,0.038-0.641-0.018-0.937-0.166c-1.119,0.207-2.238,0.416-3.023-0.739
	c-1.001-0.051-2.001-0.103-3.002-0.153c-0.639,0.733-1.383,1.401-1.896,2.214c-1.52,2.405-2.037,6.19-6.482,4.307
	c-0.268-0.113-1.077,1.051-1.635,1.621c-5.874,0.642-11.79,2.799-17.557-0.521c-0.401-0.231-0.939-0.225-1.414-0.329
	c-0.507,3.366-3.336,3.518-5.779,4.387c-0.724,0.257-0.267,2.673-2.091,1.776c-0.959-0.472-1.985-1.263-2.099-2.607
	C476.361,160.857,475.402,153.585,476.014,146.253z M372.23,229.697c-0.155-1.817-0.678-4.048,2.048-4.196
	c8.447-0.46,16.917-1.496,23.813,5.625c3.264,3.37,5.18,7.243,5.917,11.45c1.49,8.505,2.621,17.117,1.571,26.12
	c4.392-1.197,5.464-4.157,5.67-7.931c0.595-10.855-0.926-21.517-2.792-32.144c-0.948-5.4-0.279-6.238,5.167-5.717
	c0.162,0.016,0.316,0.1,0.478,0.144c2.619,0.71,5.856-2.707,7.99,1.147c1.505,2.719,1.336,5.881,1.464,8.749
	c0.515,11.492,1.662,22.978,0.875,34.725c2.292-0.507,1.862-2.443,1.838-3.552c-0.278-12.571,1.755-25.101,0.712-37.673
	c-0.267-3.218,0.854-4.371,4.129-4.371c4.774,0,9.557-0.411,14.319-0.832c3.594-0.317,4.42,1.947,4.267,4.624
	c-0.635,11.075,2.977,21.588,4.478,32.358c0.561,4.024,2.564,8.383,4.649,13.948c0.31-8.273-1.009-14.981-1.511-21.724
	c-0.647-8.693-1.453-17.379-2.406-26.045c-0.317-2.892,0.591-3.763,3.412-3.862c11.369-0.403,11.328-0.467,13.972,10.814
	c0.548,2.337,1.504,4.578,2.563,7.729c1.372-5.944-1.407-10.523-1.292-15.438c0.074-3.174,0.87-4.228,3.89-3.938
	c3.397,0.326,7.915-1.762,9.897,0.694c1.616,2.002,0.329,6.349,0.329,9.523c1.332,0.379,1.462-0.267,1.664-0.899
	c2.27-7.097,6.188-10.127,13.557-10.499c8.022-0.405,14.295,2.89,16.864,8.994c0.376,0.892,1.845,2.076,0.259,2.999
	c-3.731,2.173-7.521,4.264-11.401,6.149c-1.043,0.508-1.479-0.853-1.89-1.753c-0.472-1.037-0.997-2.497-2.315-2.204
	c-1.151,0.256-1.429,1.624-1.384,2.869c0.303,8.301,0.307,16.624,1.813,24.834c0.255,1.391,0.073,3.209,2.062,3.483
	c0.939,0.13,1.419-0.841,1.607-1.636c0.371-1.57,1.245-3.448-0.412-4.619c-4.41-3.115-1.782-7.981-3.142-11.836
	c-0.227-0.644,0.618-1.12,1.313-1.154c4.157-0.2,8.315-0.433,12.476-0.504c1.538-0.026,1.765,1.47,1.845,2.549
	c0.665,9.012,1.316,18.024,1.781,27.047c0.123,2.378-5.295,4.468-8.312,2.558c-2.224-1.409-2.568,0.408-3.651,0.874
	c-3.174,1.365,0.658,1.27,0.583,2.304c-0.3,4.124-0.206,8.278-0.202,12.421c0.002,1.497,0.445,3.046,0.183,4.479
	c-0.425,2.313,2.336,5.63-1.422,6.832c-3.732,1.194-6.836,0.009-7.877-4.319c-0.603,0.038-1.206,0.075-1.81,0.113
	c0.389,4.136-2.073,6.212-5.947,5.092c-1.871-0.541-1.342-2.121-1.265-3.196c0.455-6.278,0.573-12.506-1.152-18.649
	c-0.28-0.996-0.911-2.717,0.944-2.626c2.708,0.133,6.034-2.059,8.013,1.488c1.258,2.255,2.174,4.701,3.404,7.419
	c1.458-3.513-1.875-6.185-0.474-9.322c0.407-0.913-1.094-0.595-1.734-0.791c-4.927-1.504-8.293-4.64-10-9.521
	c-0.489,0.017-0.979,0.032-1.468,0.049c-0.011,7.945-0.061,7.689-7.702,9.177c-5.213,1.014-8.746,0.379-8.885-5.826
	c-0.676,0.191-1.261,0.31-1.255,0.361c0.639,5.603-2.475,6.108-7.079,5.949c-5.632-0.196-11.304,0.409-16.941,0.881
	c-3.094,0.26-4.681-0.561-4.563-3.965c0.067-1.953,0.665-4.733-2.5-4.878c-3.417-0.157-2.86,2.966-2.785,4.773
	c0.187,4.51-1.821,5.928-5.952,5.265c-0.323-0.052-0.665,0.023-0.998,0.017c-2.794-0.053-6.368,0.923-8.176-0.441
	c-2.028-1.531,1.132-4.707,0.786-7.325c-0.055-0.41-0.227-0.805-0.533-1.854c-2.601,5.051-6.003,8.385-11.018,9.978
	c-3.857,1.226-6.372,0.761-7.034-3.827c-0.278-1.929-1.123-3.776-1.993-6.563c-3.161,4.681-6.004,8.829-10.754,11.19
	c-4.84,2.405-9.89,1.962-14.918,1.892c-3.178-0.044-2.152-3.037-2.271-4.65c-0.827-11.208-1.349-22.438-2.062-33.656
	C373.219,240.189,372.677,234.946,372.23,229.697z M508.57,309.607c0.963-0.377,1.824,0.116,2.157,1.355
	c0.886,3.292-1.512,4.122-4.096,4.973C507.715,313.888,505.424,310.842,508.57,309.607z M505.555,311.487
	c-2.447,0.563-1.001,3.659-2.958,4.895c-1.072-1.777-2.67-3.445-3.069-5.362c-0.399-1.923,1.793-1.386,2.961-1.453
	C503.682,309.498,505.301,308.97,505.555,311.487z M480.26,284.757c-0.297-1.509-1.563-3.702,0.354-4.378
	c2.264-0.797,5.038-0.986,7.375-0.467c1.869,0.415,0.964,2.775,0.951,4.35c-0.042,5.278-0.697,10.551,0.991,15.778
	c1.179,3.646,0.382,4.227-4.99,4.303c-4.02,1.048-4.311-1.059-3.869-4.852C481.641,294.607,481.22,289.637,480.26,284.757z
	 M469.801,298.851c-0.713-0.228-1.732-0.21-2.354,0.149c-1.02,0.589-0.001,1.39,0.11,2.123c0.209,1.367,1.354,3.245-0.436,3.965
	c-2.114,0.851-4.701,1.1-6.783,0.165c-1.146-0.515-1.122-2.589-0.687-4.077c1.546-5.297,1.739-10.798,2.287-16.225
	c0.313-3.104,1.367-4.292,4.553-4.357c7.045-0.146,7.02-0.292,8.833,6.841c0.976,3.839,1.896,7.701,3.1,11.471
	c1.898,5.945,1.934,5.997-4.807,6.12c-3.261,0.895-4.409-0.83-3.509-4.254C470.33,299.935,470.868,299.191,469.801,298.851z
	 M448.463,296.099c-0.137-0.159-1.119,0.054-1.303,0.348c-1.289,2.06-0.316,4.114,0.127,6.186c0.817,3.822,0.785,3.829-4.578,3.89
	c-3.767,0.708-4.987-0.486-4.188-5.118c0.83-4.809,0.765-9.927-1.085-14.74c-0.513-1.335-1.115-3.511,0.276-3.918
	c2.471-0.723,5.302-0.896,7.841-0.464c1.801,0.307,0.924,2.474,0.8,3.881c-0.044,0.488-0.341,0.953-0.386,1.44
	c-0.105,1.145-0.364,2.417,0.619,3.258c0.329,0.281,1.403,0.19,1.746-0.138c0.944-0.904,0.731-2.205,0.346-3.262
	c-0.684-1.871-1.818-4.526-0.185-5.385c1.989-1.045,4.838-0.612,7.306-0.533c1.772,0.057,1.29,1.73,1.229,2.729
	c-0.383,6.125-0.781,12.223,0.964,18.25c0.271,0.937,0.752,2.68-0.75,2.988c-2.423,0.499-4.992,0.854-7.417,0.57
	c-1.648-0.193-0.944-2.227-0.867-3.409C449.103,300.43,450.229,298.15,448.463,296.099z M434.72,320.182
	c-2.566-0.379-3.527-2.922-4.067-5.366c-0.291-1.313,1.049-1.557,1.254-1.116c0.83,1.779,6.336-1.818,3.564,3.788
	C435.467,318.194,436.686,320.473,434.72,320.182z M417.404,292.979c-0.429-3.543-0.827-7.177,3.075-9.14
	c4.3-2.163,8.723-1.701,12.951,0.289c2.64,1.242,0.983,3.872,1.489,5.82c0.364,1.404-0.676,1.95-1.685,1.597
	c-1.842-0.646-4.901,2.183-5.553-1.886c-0.142-0.89-0.749-1.615-1.591-1.595c-0.969,0.024-1.256,0.922-1.211,1.817
	c0.183,3.645,0.364,7.29,0.59,10.933c0.054,0.871,0.44,1.637,1.486,1.585c1.174-0.058,1.266-1.083,1.1-1.811
	c-0.975-4.282,2.37-3.298,4.476-3.658c1.188-0.203,3.15-0.714,2.963,1.362c-0.244,2.702,1.936,5.926-1.721,8.043
	c-8.471,4.906-15.879,0.874-16.119-8.884c-0.021-0.829-0.003-1.659-0.003-1.528C417.518,294.302,417.483,293.638,417.404,292.979z
	 M403.19,303.859c0.626,1.518,1.595,3.563,0.065,4.49c-1.755,1.064-4.35,1.1-6.224,0.192c-1.737-0.84-0.584-2.882-0.534-4.47
	c0.153-4.943,0.433-9.91-0.903-14.78c-0.435-1.587-1.809-4.247,0.535-4.455c2.513-0.224,5.982-2.485,7.972,1.291
	c1.205,2.287,2.233,4.668,3.471,7.281c0.677-1.654,0.414-2.883,0.06-4.138c-1.524-5.397-0.972-5.915,4.601-5.616
	c2.102,0.113,2.781,1.048,2.496,2.713c-1.049,6.122,0.115,12.197,0.153,18.292c0.009,1.28,1.073,3.482-1.364,3.424
	c-2.224-0.054-5.044,1.865-6.673-1.326c-1.174-2.3-2.307-4.621-3.651-7.321C402.734,301.296,402.662,302.58,403.19,303.859z
	 M376.576,323.582c1.998-2.376-0.612-6.521,3.126-6.777c4.119-0.282,0.609,4.644,3.02,6.486
	C380.916,323.377,379.111,323.462,376.576,323.582z M375.262,302.366c-0.349-4.275,0.006-8.593-1.274-12.815
	c-0.654-2.159-0.604-4.407,2.912-4.081c1.759,0.163,3.557-0.748,5.168-0.038c0.354,0,0.522-0.018,0.686,0.003
	c3.378,0.419,7.645-2.337,9.854,0.113c2.138,2.371-0.479,6.631,0.064,10.111c0.306,1.955,0.258,3.973,0.28,5.963
	c0.06,5.222-3.953,9.562-8.973,9.763C379.798,311.552,375.659,307.248,375.262,302.366z M408.223,322.059
	c-1.438-0.201-1.355-1.084-1.412-1.87c-0.071-0.979-0.013-2.032-1.509-1.895c-0.925,0.085-1.534,0.447-1.524,1.47
	c0.017,1.765-0.725,2.789-2.616,2.768c-2.521-0.028-2.195-1.935-2.31-3.511c-0.09-1.259-0.455-2.198-1.889-2.242
	c-0.021,0.01-0.041,0.015-0.061,0.024c-0.006-0.005-0.013-0.01-0.019-0.015c0.316,5.492,0.289,5.563-4.375,4.11
	c-1.287-0.4-1.271,0.454-1.688,1.057c-1.063,1.531-2.666,1.847-3.779,0.536c-1.338-1.575-1.344-3.763-0.253-5.532
	c0.342-0.555,1.825-0.54,2.786-0.544c1.198-0.005,1.286,0.755,0.755,1.651c-0.792,1.338,0.07,1.819,1.132,1.931
	c1.25,0.132,1.033-0.931,1.135-1.713c0.438-3.353,2.064-3.306,4.288-1.496c0-0.006-0.001-0.011-0.001-0.017
	c0.029,0,0.052,0.006,0.08,0.007c4.242-1.961,8.717-1.543,13.178-1.273c0.364-0.075,0.729-0.151,1.095-0.228
	c3.059-1.119,5.924-2.003,5.575,3.116c-0.118,1.723,0.179,2.874-2.481,3.037c-3.174,0.195-2.639-1.505-2.708-3.26
	c-0.918-0.014-1.836-0.028-2.754-0.043C408.323,319.36,409.436,321.001,408.223,322.059z M419.048,340.127
	c-4.798,2.004-7.941-0.071-8.123-5.494c-0.23-6.905,0.718-8.299,5.343-8.098c3.004,0.131,4.653,1.33,4.088,4.699
	c-0.641,0.043-1.299,0.043-1.941,0.14c-1.268,0.191-3.251-1.265-3.579,1.165c-0.39,2.889,2.02,1.928,3.417,2.037
	c1.396,0.109,2.6-0.079,2.57,1.98C420.799,338.134,420.827,339.384,419.048,340.127z M420.422,321.545
	c-3.77,0.01-2.142-2.976-2.475-4.773c-0.475-2.564,1.437-2.515,3.143-2.546c3.682-0.066,0.442,2.793,1.781,4.072
	c1.914-1.283-0.387-4.118,2.234-4.647c1.429-0.288,3.571-0.789,3.649,1.199c0.07,1.797,2.511,4.129-0.514,5.622
	C425.776,321.689,423.067,321.539,420.422,321.545z M429.752,338.422c-2.334-0.08-5.753,3.051-6.676,0.993
	c-1.434-3.198-0.924-7.342-0.838-11.076c0.015-0.657,1.924-1.649,3.058-1.818c1.868-0.279,1.452,1.19,1.254,2.347
	c-0.169,0.983-0.232,1.971,0.914,2.454c0.753-0.323,0.922-0.901,0.805-1.608c-0.353-2.137-0.465-4.11,2.641-3.906
	c3.063,0.2,1.347,2.281,1.438,3.654c0.111,1.651,0.141,3.315,0.378,4.95C433.071,336.797,433.05,338.535,429.752,338.422z
	 M443.456,338.522c-2.729,0.388-2.358-1.389-2.5-2.99c-0.036-0.42-0.384-0.813-0.755-1.545c-1.719,1.763,0.326,3.252-0.525,4.517
	c-0.772,1.146-2.104,0.617-3.204,0.746c-1.464,0.174-1.521-0.792-1.52-1.86c0.003-2.472-0.198-4.957,0.009-7.409
	c0.123-1.465-2.44-3.573,0.057-4.165c2.747-0.65,5.979-1.237,8.684,0.327c1.58,0.914,1.75,3.098,0.739,4.436
	c-1.287,1.704,0.683,2.61,0.41,4.004C444.577,335.979,446.78,338.051,443.456,338.522z M442.298,320.104
	c-3.756-0.02-1.702-2.872-2.045-4.39c-0.863-3.816,2.016-2.591,3.984-2.786c2.36-0.234,4.757,1.092,6.944-0.572
	c0.176,0.519,0.31,0.7,0.27,0.828c-0.64,2.078-1.02,5.735-2.014,5.911c-2.527,0.45-0.573-3.93-3.417-4.443
	c-0.204,0.215-0.812,0.598-0.76,0.84C445.806,318.051,445.785,320.123,442.298,320.104z M446.951,334.218
	c0.287-2.271,0.486-4.858-0.318-6.889c-1.114-2.808,1.322-2.193,2.11-2.55c1.796-0.813,2.086,0.592,2.208,2.084
	c0.304,3.708-1.149,7.593,1.393,11.01C448.505,339.21,446.374,338.795,446.951,334.218z M463.512,334.915
	c-0.752,3.029-3.452,3.382-6.019,3.197c-2.257-0.163-4.223-1.908-3.391-3.87c0.693-1.634-0.013-2.435-0.409-3.418
	c-0.88-2.186-1.354-4.351,0.804-5.838c2.179-1.501,4.722-1.293,7.178-0.359c1.217,0.462,1.247,1.504,1.123,2.472
	c-0.309,2.425-2.655,0.411-4.062,2.229C462.529,329.632,464.36,331.5,463.512,334.915z M462.76,318.046
	c-0.057-0.044-0.044-0.252,0.009-0.341c0.024-0.043,0.063-0.077,0.098-0.113c-0.904,0.49-3.015-1.691-3.057,1.334
	c-0.013,0.872-2.159,0.31-3.015-0.231c-1.667-1.055-0.963-3.009-1.166-4.578c-0.153-1.191,0.732-1.935,1.868-1.761
	c2.008,0.309,4.267-0.576,5.996,1.152c0.531-0.921,1.114-2.536,2.293-1.185c1.143,1.311,1.164,3.413,0.508,5.041
	C465.654,318.953,464.199,319.173,462.76,318.046z M475.126,327.584c-2.268,3.413-2.286,3.401-2.179,7.32
	c0.416,1.864-0.566,2.234-2.182,2.259c-1.398,0.021-2.702,0.267-2.698-1.77c0.004-2.85,0.346-5.721-2.692-7.683
	c-0.624-0.402-1.051-2.528,1.357-3.228c2.6-0.756,4.985-0.011,7.444,0.037C476.68,324.569,476.036,326.215,475.126,327.584z
	 M474.265,317.346c-0.567-1.134-0.438-3.168,0.239-4.265c1.815-2.945,15.898-3.479,18.557-0.927c0.933-0.588,0.315-2.889,1.92-2.34
	c1.804,0.617,0.906,2.609,0.92,3.976c0.012,1.254,0.856,3.603-1.618,3.197c-1.411-0.232-2.508,0.946-3.783,0.251
	c-4.879,1.211-2.824-2.958-3.764-4.846c-0.89-0.215-1.486,0.671-2.241,0.905c-1.781,0.555,1.542,3.812-1.25,4.106
	c-2.298,0.241,0.174-3.587-2.387-3.926c-0.47-0.062-0.903-0.389-1.354-0.594c-0.486,3.656-0.499,3.547-3.138,3.853
	C475.682,316.816,475.296,319.408,474.265,317.346z M513.792,332.931c-1.61,1.917-3.733,2.046-5.859,1.946
	c-6.16-0.287-12.262,0.428-18.38,0.87c-1.08,0.077-2.653,1.008-3.021-0.529c-1.172-4.894-3.95-2.138-5.614-0.968
	c-2.089,1.468-2.749,1.501-2.878-1.122c-0.138-2.777,0.564-5.61-0.874-8.306c-0.609-1.141,0.242-1.896,1.452-1.886
	c1.361,0.011,3.012-1.097,3.948,0.879c0.458,0.968,0.193,2.295,2.073,3.505c0.202-1.396,0.45-2.178,0.402-2.94
	c-0.19-3.074,2.154-1.776,3.482-1.968c1.949-0.281,2,0.812,1.709,2.464c-0.372,2.106-0.215,4.302-0.427,6.444
	c-0.133,1.351,0.443,2.611,1.475,2.795c1.576,0.281,1.456-1.395,1.625-2.423c0.351-2.129,0.756-4.276,0.789-6.423
	c0.037-2.44,0.868-3.408,3.447-3.66c2.848-0.279,3.291,1.199,3.772,3.312c0.582,2.557,1.424,5.054,2.18,7.665
	c2.701-1.783,3.466-3.382,1.039-5.961c-0.944-1.004-0.868-3.307,0.647-4.539c1.947-1.583,4.247-1.724,6.596-0.975
	c2.383,0.761,1.767,2.797,1.119,4.052c-0.747,1.446,0.62,1.608,0.783,2.407C513.639,329.329,515.529,330.864,513.792,332.931z
	 M530.081,332.718c-2.566,1.253-5.442,1.056-8.202,0.734c-1.185-0.138-0.433-1.149-0.385-1.886c0.139-2.122,0.104-4.257,0.1-6.387
	c-0.005-2.141-2.684-5.245,2.493-5.281c3.931-0.028,7.479-0.39,7.463,5.05c-0.002,0.822,0.112,1.644,0.152,2.188
	C531.681,329.354,532.285,331.643,530.081,332.718z M542.113,331.797c-1.312,0.587-2.532,2.263-3.115-0.586
	c-0.051-0.247-0.329-0.612-0.534-0.636c-1.026-0.117-0.696,0.708-0.874,1.269c-0.669,2.116-2.592,1.42-3.76,1.114
	c-1.416-0.372-0.673-1.896-0.522-2.997c0.338-2.461,0.72-4.922,0.911-7.396c0.186-2.397,1.077-3.77,3.66-3.184
	c2.063-0.537,3.05,0.199,3.438,2.291c0.451,2.43,1.094,4.862,1.994,7.16C543.946,330.454,543.644,331.113,542.113,331.797z
	 M550.439,332.177c-1.08-0.141-3.366,0.942-2.844-1.289c0.854-3.644-1.531-5.899-2.749-8.681c-0.534-1.218-2.127-2.742,0.464-3.323
	c1.381-0.311,2.404-0.31,3.754,1.623c2.199,3.146,3.289,6.172,3.087,8.468C552.797,332.036,551.729,332.345,550.439,332.177z
	 M553.361,312.696c-0.819,1.822-2.646,1.528-4.284,0.917c-4.411,2.664-7.129,0.619-7.438-5.593c-0.345,0.169-0.69,0.339-1.035,0.508
	c0.106,0.807,0.296,1.613,0.297,2.42c0.001,0.898,0.315,2.063-1.127,2.242c-0.295,0.037-0.737-0.039-0.906-0.237
	c-1.001-1.177,0.574-1.564,0.776-2.384c0.155-0.631,0.245-1.278,0.365-1.919c-0.61-0.104-1.221-0.209-1.83-0.313
	c-0.348,0.234-0.695,0.47-1.043,0.704c-0.494,0.968-1.075,1.91-1.453,2.929c-0.333,0.899,0.634,2.762-1.273,2.396
	c-1.299-0.249-0.517-1.996-0.833-3.03c-0.642,0.091-1.478-0.038-1.887,0.319c-0.879,0.768-5.935,3.292-7.476,3.453
	c-1.569,0.215-2.933-1.26-4.821,0.213c-2.171,1.692-3.25-1.498-4.978-2.184c-1.178,0.59,0.454,2.229-0.32,2.129
	c-2.243-0.29-0.267-2.324-1.022-3.362c-0.225-0.289-0.249-0.591-0.073-0.905c-0.385-1.101,0.063-1.643,1.17-1.742
	c5.577-2.112,2.428,3.428,4.227,4.785c1.907-1.363-0.44-5.542,3.019-5.445c2.815,0.079,1.935,3.225,2.679,5.018
	c1.243-0.974,0.874-2.334,0.817-3.59c-0.091-2,0.364-2.619,2.526-1.732c2.037,0.835,4.056-1.936,6.334-0.542l3.316,0.117
	c0.301-0.183,0.604-0.188,0.911-0.017c1.216,0.021,2.432,0.041,3.647,0.063c2.271-2.358,4.665-1.241,7.055-0.238
	c1.375-1.388,3.011-1.686,4.232-0.131C554.083,309.007,554.083,311.089,553.361,312.696z"/>
</svg>
